<svg width="30" height="31" viewBox="0 0 30 31" fill="none" xmlns="http://www.w3.org/2000/svg">
<path d="M13.2322 10.8166C13.3417 10.8039 13.578 10.8256 14.1399 11.1111C14.6945 11.3928 15.4038 11.8425 16.4344 12.4979C17.4644 13.1529 18.1733 13.6051 18.6732 13.9941C19.1733 14.3833 19.3317 14.6122 19.3935 14.7652C19.582 15.2315 19.582 15.7685 19.3935 16.2348C19.3317 16.3878 19.1733 16.6167 18.6732 17.0059C18.1733 17.3949 17.4644 17.8471 16.4344 18.5021C15.4038 19.1575 14.6945 19.6072 14.1399 19.8889C13.578 20.1744 13.3417 20.1961 13.2322 20.1834C12.8254 20.1363 12.4344 19.8989 12.1696 19.4974C12.0802 19.3619 11.9753 19.0848 11.918 18.397C11.8614 17.7176 11.8605 16.8074 11.8605 15.5C11.8605 14.1926 11.8614 13.2824 11.918 12.603C11.9753 11.9152 12.0802 11.6381 12.1696 11.5026C12.4344 11.1011 12.8254 10.8637 13.2322 10.8166Z" fill="#FAFAFA"/>
<path fill-rule="evenodd" clip-rule="evenodd" d="M0 15.5C0 6.93959 6.71573 0 15 0C23.2843 0 30 6.93959 30 15.5C30 24.0604 23.2843 31 15 31C6.71573 31 0 24.0604 0 15.5ZM17.4847 10.6263C16.5122 10.0078 15.718 9.50274 15.0633 9.17013C14.4053 8.8359 13.7202 8.58381 12.9991 8.66729C11.9569 8.78794 11.0317 9.38761 10.4401 10.2845C10.0386 10.8932 9.89809 11.6319 9.83266 12.4176C9.76742 13.2009 9.76743 14.2048 9.76744 15.4482V15.5518C9.76743 16.7952 9.76742 17.7991 9.83266 18.5824C9.89809 19.3681 10.0386 20.1068 10.4401 20.7155C11.0317 21.6124 11.9569 22.2121 12.9991 22.3327C13.7202 22.4162 14.4053 22.1641 15.0633 21.8299C15.718 21.4973 16.5122 20.9922 17.4847 20.3737L17.5769 20.3151C18.5504 19.696 19.3443 19.1911 19.9324 18.7335C20.5294 18.2689 21.047 17.7558 21.3248 17.0684C21.7289 16.0686 21.7289 14.9314 21.3248 13.9316C21.047 13.2442 20.5294 12.7311 19.9324 12.2665C19.3443 11.8088 18.5504 11.304 17.5769 10.6849L17.4847 10.6263Z" fill="#FAFAFA"/>
</svg>
