<svg width="22" height="24" viewBox="0 0 22 24" fill="none" xmlns="http://www.w3.org/2000/svg">
<path d="M12.6452 0.243972C12.2945 -0.0813239 11.7259 -0.0813239 11.3753 0.243972C11.0246 0.569267 11.0246 1.09668 11.3753 1.42197L12.5362 2.49891L10.1275 2.4989C7.81074 2.49863 6.42527 2.49846 5.27405 2.84545C2.95039 3.54581 1.1286 5.23575 0.3736 7.39125C-0.000452639 8.45915 -0.000277201 9.74436 1.61551e-05 11.8934V12.2628C-0.000277201 14.4118 -0.000452639 15.697 0.3736 16.7649C0.526851 17.2024 1.03344 17.4419 1.50509 17.2997C1.97675 17.1576 2.23487 16.6876 2.08162 16.2501C1.80702 15.4662 1.79595 14.4685 1.79595 12.0781C1.79595 9.68766 1.80702 8.69 2.08162 7.90605C2.65897 6.25773 4.0521 4.96542 5.82902 4.42985C6.67412 4.17513 7.74962 4.16486 10.3265 4.16486H12.2239L11.0986 5.03471C10.7176 5.32922 10.6662 5.85446 10.9836 6.20787C11.3011 6.56128 11.8673 6.60903 12.2483 6.31452L14.1459 4.84769C14.6388 4.46662 14.9091 3.93226 14.9485 3.38772C14.9901 2.81333 14.7753 2.21997 14.2961 1.77542L12.6452 0.243972Z" fill="white"/>
<path d="M21.6297 6.83254C21.4822 6.39331 20.9788 6.14816 20.5054 6.28497C20.0319 6.42178 19.7676 6.88875 19.9151 7.32797C20.1938 8.15806 20.2041 9.21238 20.2041 11.7008C20.2041 14.1892 20.1938 15.2435 19.9151 16.0736C19.3308 17.8135 17.9274 19.1608 16.1602 19.7164C15.3212 19.9802 14.253 19.9913 11.6735 19.9913H9.80053L10.9615 18.9144C11.3122 18.5891 11.3122 18.0617 10.9615 17.7364C10.6108 17.4111 10.0423 17.4111 9.69159 17.7364L8.04065 19.2678C7.56143 19.7124 7.3466 20.3057 7.3882 20.8801C7.42764 21.4247 7.69793 21.959 8.19089 22.3401L10.0884 23.8069C10.4694 24.1014 11.0356 24.0537 11.3531 23.7003C11.6706 23.3469 11.6191 22.8216 11.2381 22.5271L10.1129 21.6572L11.8778 21.6573C14.1893 21.6576 15.5805 21.6577 16.7367 21.2942C19.0701 20.5606 20.8816 18.797 21.6297 16.569C22.0004 15.4651 22.0002 14.135 22 11.8821V11.5194C22.0002 9.26655 22.0004 7.93642 21.6297 6.83254Z" fill="white"/>
</svg>
