<svg width="30" height="31" viewBox="0 0 30 31" fill="none" xmlns="http://www.w3.org/2000/svg">
<path fill-rule="evenodd" clip-rule="evenodd" d="M0 15.5C0 6.93959 6.71573 0 15 0C23.2843 0 30 6.93959 30 15.5C30 24.0604 23.2843 31 15 31C6.71573 31 0 24.0604 0 15.5ZM13.2558 9.73256C13.2558 9.13532 12.7873 8.65116 12.2093 8.65116C11.6313 8.65116 11.1628 9.13532 11.1628 9.73256V21.2674C11.1628 21.8647 11.6313 22.3488 12.2093 22.3488C12.7873 22.3488 13.2558 21.8647 13.2558 21.2674V9.73256ZM18.8372 9.73256C18.8372 9.13532 18.3687 8.65116 17.7907 8.65116C17.2127 8.65116 16.7442 9.13532 16.7442 9.73256V21.2674C16.7442 21.8647 17.2127 22.3488 17.7907 22.3488C18.3687 22.3488 18.8372 21.8647 18.8372 21.2674V9.73256Z" fill="#FAFAFA"/>
</svg>
