<svg width="22" height="16" viewBox="0 0 22 16" fill="none" xmlns="http://www.w3.org/2000/svg">
<path fill-rule="evenodd" clip-rule="evenodd" d="M11.8086 0.0769523C11.021 -0.152612 10.2642 0.161735 9.53841 0.619627C8.80943 1.0795 7.92466 1.80872 6.81769 2.72108L5.83658 3.52969C5.64844 3.68475 5.57236 3.7472 5.49696 3.80338C4.85853 4.27913 4.09289 4.55399 3.29764 4.5929C3.20372 4.5975 3.1053 4.59769 2.8615 4.59769L2.82228 4.59769C2.61212 4.59763 2.45019 4.59758 2.30541 4.61378C1.10127 4.74852 0.150839 5.69895 0.0161017 6.90309C-9.80422e-05 7.04787 -5.23351e-05 7.2098 7.03307e-06 7.41996V8.58004C-5.23351e-05 8.7902 -9.80422e-05 8.95213 0.0161016 9.09691C0.150839 10.301 1.10127 11.2515 2.30541 11.3862C2.45019 11.4024 2.61212 11.4024 2.82229 11.4023L2.8615 11.4023C3.1053 11.4023 3.20372 11.4025 3.29764 11.4071C4.09289 11.446 4.85853 11.7209 5.49697 12.1966C5.57236 12.2528 5.64844 12.3152 5.83658 12.4703L6.81768 13.2789C7.92465 14.1913 8.80942 14.9205 9.53841 15.3804C10.2642 15.8383 11.021 16.1526 11.8086 15.923C12.07 15.8469 12.3178 15.73 12.5428 15.5767C13.2209 15.1149 13.4596 14.3311 13.5679 13.4797C13.6766 12.6247 13.6766 11.4781 13.6766 10.0436V5.95636C13.6766 4.52186 13.6766 3.37532 13.5679 2.52029C13.4596 1.66894 13.2209 0.885062 12.5428 0.423276C12.3178 0.270014 12.07 0.153142 11.8086 0.0769523ZM7.67584 3.84723C8.83399 2.89271 9.64964 2.22228 10.2933 1.81624C10.9492 1.40246 11.2425 1.38565 11.4127 1.43525C11.5315 1.46988 11.6441 1.52301 11.7464 1.59267C11.8929 1.69244 12.0665 1.92948 12.1644 2.69881C12.2604 3.45374 12.2618 4.50957 12.2618 6.01037V9.98963C12.2618 11.4904 12.2604 12.5463 12.1644 13.3012C12.0665 14.0705 11.8929 14.3076 11.7464 14.4073C11.6441 14.477 11.5315 14.5301 11.4127 14.5647C11.2425 14.6143 10.9492 14.5975 10.2933 14.1838C9.64964 13.7777 8.83399 13.1073 7.67584 12.1528L6.72167 11.3664C6.55276 11.2271 6.44885 11.1415 6.34235 11.0621C5.47859 10.4185 4.44272 10.0466 3.36679 9.99397C3.23414 9.98748 3.09948 9.98748 2.88059 9.98749H2.8615C2.59381 9.98749 2.51821 9.98638 2.46274 9.98017C1.91541 9.91893 1.48339 9.48691 1.42215 8.93958C1.41594 8.88411 1.41483 8.80851 1.41483 8.54082V7.45918C1.41483 7.19149 1.41594 7.11589 1.42215 7.06042C1.48339 6.51309 1.91541 6.08107 2.46274 6.01983C2.51821 6.01362 2.59381 6.01251 2.8615 6.01251H2.88061C3.09947 6.01252 3.23415 6.01252 3.36679 6.00603C4.44272 5.95338 5.47859 5.58152 6.34235 4.93786C6.44885 4.8585 6.55277 4.77285 6.72168 4.63363L7.67584 3.84723Z" fill="white"/>
<path d="M18.1855 0.897293C17.9092 0.621032 17.4613 0.621032 17.185 0.897292C16.9088 1.17355 16.9088 1.62146 17.185 1.89772L17.8453 2.55797C18.4194 3.13211 18.6731 3.38674 18.8639 3.61506C20.9851 6.15353 20.9851 9.84647 18.8639 12.3849C18.6731 12.6133 18.4195 12.8679 17.8453 13.442L17.185 14.1023C16.9088 14.3785 16.9088 14.8264 17.185 15.1027C17.4613 15.379 17.9092 15.379 18.1855 15.1027L18.8794 14.4088C19.4109 13.8773 19.7129 13.5753 19.9495 13.2922C22.5097 10.2285 22.5097 5.7715 19.9495 2.70783C19.7129 2.42469 19.4109 2.12266 18.8793 1.59113L18.1855 0.897293Z" fill="white"/>
<path d="M16.2991 3.72693C16.0228 3.45067 15.5749 3.45067 15.2986 3.72693C15.0224 4.00319 15.0224 4.4511 15.2986 4.72736L15.6759 5.10465C15.6832 5.11192 15.6899 5.11866 15.6962 5.12492C15.74 5.16873 15.7603 5.18913 15.777 5.20634C17.2888 6.76201 17.2888 9.23799 15.777 10.7937C15.7579 10.8133 15.7341 10.8372 15.6759 10.8954L15.2986 11.2726C15.0224 11.5489 15.0224 11.9968 15.2986 12.2731C15.5749 12.5493 16.0228 12.5493 16.2991 12.2731L16.6814 11.8907C16.6878 11.8843 16.6942 11.8779 16.7 11.8721C16.741 11.8311 16.768 11.804 16.7917 11.7797C18.837 9.67493 18.837 6.32507 16.7917 4.22033C16.7646 4.19246 16.7331 4.16095 16.6814 4.10923L16.2991 3.72693Z" fill="white"/>
</svg>
